<?xml version='1.0' encoding='ascii'?>
<svg xmlns="http://www.w3.org/2000/svg" height="2160" version="1.1" width="3840">
    <g id="RenderLayer_LineSet" inkscape:groupmode="lineset" inkscape:label="RenderLayer_LineSet" xmlns:inkscape="http://www.inkscape.org/namespaces/inkscape">
        <g id="strokes" inkscape:groupmode="layer" inkscape:label="strokes" xmlns:inkscape="http://www.inkscape.org/namespaces/inkscape">
            <path d=" M 1920.000, 426.291 1910.000, 426.352 1908.944, 426.359 1908.995, 436.359 1909.046, 446.358 1909.097, 456.358 1909.148, 466.358 1909.199, 476.358 1909.250, 486.358 1909.301, 496.358 1909.352, 506.358 1909.403, 516.357 1909.454, 526.357 1909.505, 536.357 1909.556, 546.357 1909.607, 556.357 1909.658, 566.357 1909.709, 576.357 1909.745, 583.392 1919.744, 583.326 1920.000, 583.325 1930.000, 583.391 1930.255, 583.392 1930.306, 573.392 1930.357, 563.393 1930.408, 553.393 1930.459, 543.393 1930.510, 533.393 1930.561, 523.393 1930.612, 513.393 1930.663, 503.393 1930.714, 493.394 1930.765, 483.394 1930.816, 473.394 1930.867, 463.394 1930.918, 453.394 1930.969, 443.394 1931.020, 433.394 1931.056, 426.359 1921.056, 426.297 1920.000, 426.291 " fill="none" stroke="rgb(0, 0, 0)" stroke-linecap="butt" stroke-linejoin="round" stroke-opacity="1.0" stroke-width="3.0" />
            <path d=" M 1264.367, 832.430 1257.139, 825.520 1249.911, 818.609 1242.682, 811.699 1235.454, 804.789 1228.225, 797.879 1220.997, 790.969 1213.769, 784.058 1206.540, 777.148 1199.312, 770.238 1192.083, 763.328 1184.855, 756.418 1177.627, 749.508 1170.398, 742.598 1163.170, 735.687 1155.942, 728.777 1150.856, 723.915 1143.946, 731.144 1137.036, 738.372 1132.560, 743.054 1139.788, 749.964 1147.017, 756.874 1154.245, 763.784 1161.474, 770.695 1168.702, 777.605 1175.930, 784.515 1183.159, 791.425 1190.387, 798.335 1197.616, 805.245 1204.844, 812.156 1212.072, 819.066 1219.301, 825.976 1226.529, 832.886 1233.757, 839.796 1240.986, 846.706 1246.072, 851.568 1252.982, 844.340 1259.892, 837.111 1264.367, 832.430 " fill="none" stroke="rgb(0, 0, 0)" stroke-linecap="butt" stroke-linejoin="round" stroke-opacity="1.0" stroke-width="3.0" />
            <path d=" M 937.607, 1416.668 927.761, 1414.917 917.916, 1413.165 908.070, 1411.414 898.225, 1409.663 888.380, 1407.911 878.534, 1406.160 868.689, 1404.409 858.843, 1402.658 848.998, 1400.906 839.152, 1399.155 829.307, 1397.404 819.461, 1395.652 809.616, 1393.901 799.771, 1392.150 789.925, 1390.398 782.998, 1389.166 781.247, 1399.011 779.495, 1408.857 778.361, 1415.234 788.207, 1416.985 798.052, 1418.736 807.897, 1420.488 817.743, 1422.239 827.588, 1423.990 837.434, 1425.742 847.279, 1427.493 857.125, 1429.244 866.970, 1430.996 876.816, 1432.747 886.661, 1434.498 896.506, 1436.250 906.352, 1438.001 916.197, 1439.752 926.043, 1441.504 932.970, 1442.736 934.721, 1432.890 936.472, 1423.045 937.607, 1416.668 " fill="none" stroke="rgb(0, 0, 0)" stroke-linecap="butt" stroke-linejoin="round" stroke-opacity="1.0" stroke-width="3.0" />
            <path d=" M 2575.633, 832.430 2582.543, 839.658 2589.453, 846.886 2593.928, 851.568 2601.157, 844.658 2608.385, 837.748 2615.614, 830.838 2622.842, 823.928 2630.070, 817.017 2637.299, 810.107 2644.527, 803.197 2651.756, 796.287 2658.984, 789.377 2666.212, 782.467 2673.441, 775.556 2680.669, 768.646 2687.897, 761.736 2695.126, 754.826 2702.354, 747.916 2707.440, 743.054 2700.530, 735.825 2693.620, 728.597 2689.144, 723.915 2681.916, 730.825 2674.688, 737.736 2667.459, 744.646 2660.231, 751.556 2653.002, 758.466 2645.774, 765.376 2638.545, 772.286 2631.317, 779.197 2624.089, 786.107 2616.860, 793.017 2609.632, 799.927 2602.404, 806.837 2595.175, 813.747 2587.947, 820.658 2580.718, 827.568 2575.633, 832.430 " fill="none" stroke="rgb(0, 0, 0)" stroke-linecap="butt" stroke-linejoin="round" stroke-opacity="1.0" stroke-width="3.0" />
            <path d=" M 2902.393, 1416.668 2904.145, 1426.514 2905.896, 1436.359 2907.030, 1442.736 2916.875, 1440.985 2926.721, 1439.233 2936.566, 1437.482 2946.412, 1435.731 2956.257, 1433.979 2966.103, 1432.228 2975.948, 1430.477 2985.794, 1428.725 2995.639, 1426.974 3005.485, 1425.223 3015.330, 1423.471 3025.176, 1421.720 3035.021, 1419.969 3044.866, 1418.217 3054.712, 1416.466 3061.639, 1415.234 3059.888, 1405.388 3058.136, 1395.543 3057.002, 1389.166 3047.156, 1390.917 3037.311, 1392.669 3027.466, 1394.420 3017.620, 1396.171 3007.775, 1397.923 2997.929, 1399.674 2988.084, 1401.425 2978.239, 1403.177 2968.393, 1404.928 2958.548, 1406.679 2948.702, 1408.431 2938.857, 1410.182 2929.011, 1411.933 2919.166, 1413.685 2909.320, 1415.436 2902.393, 1416.668 " fill="none" stroke="rgb(0, 0, 0)" stroke-linecap="butt" stroke-linejoin="round" stroke-opacity="1.0" stroke-width="3.0" />
            <path d=" M 3410.153, 1448.564 3408.822, 1443.900 3408.822, 1433.900 3408.822, 1423.900 3408.822, 1413.900 3408.822, 1403.900 3408.822, 1393.900 3408.822, 1383.900 3408.822, 1373.900 3408.822, 1363.900 3408.822, 1353.900 3408.822, 1343.900 3408.822, 1333.900 3408.822, 1323.900 3408.822, 1313.900 3408.822, 1303.900 3408.822, 1293.900 3408.822, 1283.900 3408.822, 1273.900 3408.822, 1263.900 3408.822, 1253.900 3408.822, 1243.900 3408.822, 1233.900 3408.822, 1223.900 3408.822, 1213.900 3408.822, 1203.900 3408.822, 1193.900 3408.822, 1183.900 3408.822, 1173.900 3408.822, 1163.900 3408.822, 1153.900 3408.822, 1143.900 3408.822, 1133.900 3408.822, 1123.900 3408.822, 1113.900 3408.822, 1103.900 3408.822, 1093.900 3408.822, 1083.900 3408.822, 1073.900 3408.822, 1063.900 3408.822, 1053.900 3408.822, 1043.900 3408.822, 1033.900 3408.822, 1023.900 3408.822, 1013.900 3408.822, 1003.900 3408.822, 993.900 3408.822, 983.900 3408.822, 973.900 3408.822, 963.900 3408.822, 953.900 3408.822, 943.900 3408.822, 933.900 3408.822, 923.900 3408.822, 913.900 3408.822, 903.900 3408.822, 893.900 3408.822, 883.900 3408.822, 873.900 3408.822, 863.900 3408.822, 853.900 3408.822, 843.900 3408.822, 833.900 3408.822, 823.900 3408.822, 813.900 3408.822, 803.900 3408.822, 793.900 3408.822, 783.900 3408.822, 773.900 3408.822, 763.900 3408.822, 753.900 3408.822, 743.900 3408.822, 736.623 3418.818, 736.897 3428.814, 737.170 3438.811, 737.444 3446.881, 737.665 3443.408, 728.287 3439.935, 718.910 3436.461, 709.532 3432.988, 700.155 3429.515, 690.777 3426.042, 681.400 3422.568, 672.022 3419.095, 662.645 3415.622, 653.267 3412.149, 643.890 3408.676, 634.513 3405.202, 625.135 3401.729, 615.758 3398.256, 606.380 3394.783, 597.003 3391.310, 587.625 3387.836, 578.248 3384.363, 568.870 3380.890, 559.493 3378.788, 553.818 3375.315, 563.195 3371.841, 572.573 3368.368, 581.950 3364.895, 591.328 3361.422, 600.705 3357.948, 610.082 3354.475, 619.460 3351.002, 628.837 3347.529, 638.215 3344.056, 647.592 3340.582, 656.970 3337.109, 666.347 3333.636, 675.725 3330.163, 685.102 3326.689, 694.479 3323.216, 703.857 3319.743, 713.234 3316.270, 722.612 3312.797, 731.989 3310.695, 737.665 3320.691, 737.391 3330.687, 737.118 3340.683, 736.844 3348.754, 736.623 3348.754, 746.623 3348.754, 756.623 3348.754, 766.623 3348.754, 776.623 3348.754, 786.623 3348.754, 796.623 3348.754, 806.623 3348.754, 816.623 3348.754, 826.623 3348.754, 836.623 3348.754, 846.623 3348.754, 856.623 3348.754, 866.623 3348.754, 876.623 3348.754, 886.623 3348.754, 896.623 3348.754, 906.623 3348.754, 916.623 3348.754, 926.623 3348.754, 936.623 3348.754, 946.623 3348.754, 956.623 3348.754, 966.623 3348.754, 976.623 3348.754, 986.623 3348.754, 996.623 3348.754, 1006.623 3348.754, 1016.623 3348.754, 1026.623 3348.754, 1036.623 3348.754, 1046.623 3348.754, 1056.623 3348.754, 1066.623 3348.754, 1076.623 3348.754, 1086.623 3348.754, 1096.623 3348.754, 1106.623 3348.754, 1116.623 3348.754, 1126.623 3348.754, 1136.623 3348.754, 1146.623 3348.754, 1156.623 3348.754, 1166.623 3348.754, 1176.623 3348.754, 1186.623 3348.754, 1196.623 3348.754, 1206.623 3348.754, 1216.623 3348.754, 1226.623 3348.754, 1236.623 3348.754, 1246.623 3348.754, 1256.623 3348.754, 1266.623 3348.754, 1276.623 3348.754, 1286.623 3348.754, 1296.623 3348.754, 1306.623 3348.754, 1316.623 3348.754, 1326.623 3348.754, 1336.623 3348.754, 1346.623 3348.754, 1356.623 3348.754, 1366.623 3348.754, 1376.623 3348.754, 1386.623 3348.754, 1396.623 3348.754, 1406.623 3348.754, 1416.623 3348.754, 1426.623 3348.754, 1436.623 3348.754, 1443.900 3347.423, 1448.564 3338.603, 1453.278 3333.252, 1456.138 3325.522, 1462.482 3320.832, 1466.331 3314.489, 1474.061 3310.639, 1478.751 3305.926, 1487.570 3303.065, 1492.921 3300.162, 1502.490 3298.401, 1508.296 3297.421, 1518.248 3296.826, 1524.286 3297.807, 1534.238 3298.401, 1540.276 3301.304, 1549.845 3303.065, 1555.651 3307.779, 1564.471 3310.639, 1569.822 3316.983, 1577.552 3320.832, 1582.242 3328.562, 1588.586 3333.252, 1592.435 3342.072, 1597.149 3347.422, 1600.009 3349.236, 1604.673 3349.312, 1614.672 3349.388, 1624.672 3349.465, 1634.672 3349.541, 1644.672 3349.617, 1654.671 3349.693, 1664.671 3349.769, 1674.671 3349.845, 1684.670 3349.921, 1694.670 3349.997, 1704.670 3350.073, 1714.670 3350.149, 1724.669 3350.187, 1729.617 3360.187, 1729.617 3370.187, 1729.617 3380.187, 1729.617 3390.187, 1729.617 3400.187, 1729.617 3409.290, 1729.617 3409.214, 1719.617 3409.138, 1709.617 3409.062, 1699.618 3408.985, 1689.618 3408.909, 1679.618 3408.833, 1669.619 3408.757, 1659.619 3408.681, 1649.619 3408.605, 1639.619 3408.529, 1629.620 3408.453, 1619.620 3408.377, 1609.620 3408.339, 1604.673 3410.153, 1600.009 3418.972, 1595.295 3424.323, 1592.435 3432.053, 1586.091 3436.743, 1582.242 3443.087, 1574.512 3446.936, 1569.822 3451.650, 1561.002 3454.510, 1555.651 3457.413, 1546.082 3459.174, 1540.276 3460.154, 1530.324 3460.749, 1524.286 3459.769, 1514.334 3459.174, 1508.296 3456.271, 1498.727 3454.510, 1492.921 3449.796, 1484.102 3446.936, 1478.751 3440.592, 1471.021 3436.743, 1466.331 3429.013, 1459.987 3424.323, 1456.138 3415.504, 1451.424 3410.153, 1448.564 " fill="none" stroke="rgb(0, 0, 0)" stroke-linecap="butt" stroke-linejoin="round" stroke-opacity="1.0" stroke-width="3.0" />
            <path d=" M 3349.625, 1524.286 3349.765, 1521.428 3350.185, 1518.597 3350.880, 1515.821 3351.844, 1513.127 3353.068, 1510.539 3354.539, 1508.085 3356.244, 1505.786 3358.166, 1503.666 3360.286, 1501.744 3362.585, 1500.039 3365.040, 1498.568 3367.627, 1497.344 3370.322, 1496.380 3373.097, 1495.684 3375.928, 1495.265 3378.787, 1495.124 3381.645, 1495.265 3384.476, 1495.684 3387.252, 1496.380 3389.947, 1497.344 3392.534, 1498.568 3394.989, 1500.039 3397.287, 1501.744 3399.408, 1503.666 3401.330, 1505.786 3403.035, 1508.085 3404.506, 1510.539 3405.729, 1513.127 3406.694, 1515.821 3407.389, 1518.597 3407.809, 1521.428 3407.949, 1524.286 3407.809, 1527.145 3407.389, 1529.976 3406.694, 1532.752 3405.729, 1535.446 3404.506, 1538.034 3403.035, 1540.488 3401.330, 1542.787 3399.408, 1544.907 3397.287, 1546.829 3394.989, 1548.534 3392.534, 1550.005 3389.947, 1551.229 3387.252, 1552.193 3384.476, 1552.889 3381.645, 1553.309 3378.787, 1553.449 3375.928, 1553.309 3373.098, 1552.889 3370.322, 1552.193 3367.627, 1551.229 3365.040, 1550.005 3362.585, 1548.534 3360.286, 1546.829 3358.166, 1544.907 3356.244, 1542.787 3354.539, 1540.488 3353.068, 1538.034 3351.844, 1535.446 3350.880, 1532.752 3350.185, 1529.976 3349.765, 1527.145 3349.625, 1524.286 " fill="none" stroke="rgb(0, 0, 0)" stroke-linecap="butt" stroke-linejoin="round" stroke-opacity="1.0" stroke-width="3.0" />
            <path d=" M 2349.200, 579.618 2345.024, 579.244 2340.847, 579.618 2336.929, 580.721 2333.290, 582.521 2329.949, 584.986 2326.927, 588.084 2324.243, 591.784 2321.917, 596.053 2319.970, 600.861 2318.421, 606.176 2317.290, 611.966 2316.596, 618.199 2316.361, 624.844 2316.596, 631.488 2317.290, 637.722 2318.421, 643.511 2319.970, 648.826 2321.917, 653.634 2324.243, 657.904 2326.927, 661.604 2329.949, 664.702 2333.290, 667.166 2336.929, 668.966 2340.847, 670.069 2345.024, 670.444 2349.200, 670.069 2353.118, 668.966 2356.758, 667.166 2360.098, 664.702 2363.120, 661.604 2365.804, 657.904 2368.130, 653.634 2370.077, 648.826 2371.626, 643.511 2372.758, 637.722 2373.451, 631.488 2373.687, 624.844 2373.451, 618.199 2372.758, 611.966 2371.626, 606.176 2370.077, 600.861 2368.130, 596.053 2365.804, 591.784 2363.120, 588.084 2360.098, 584.986 2356.758, 582.521 2353.118, 580.721 2349.200, 579.618 " fill="none" stroke="rgb(0, 0, 0)" stroke-linecap="butt" stroke-linejoin="round" stroke-opacity="1.0" stroke-width="3.0" />
            <path d=" M 2342.631, 591.621 2345.024, 591.360 2347.417, 591.621 2349.639, 592.393 2351.685, 593.661 2353.545, 595.409 2355.214, 597.622 2356.684, 600.285 2357.948, 603.382 2358.998, 606.898 2359.827, 610.818 2360.429, 615.125 2360.795, 619.806 2360.918, 624.844 2360.795, 629.882 2360.429, 634.562 2359.827, 638.870 2358.998, 642.789 2357.948, 646.305 2356.684, 649.403 2355.214, 652.066 2353.545, 654.279 2351.685, 656.027 2349.639, 657.295 2347.417, 658.067 2345.024, 658.327 2342.631, 658.067 2340.408, 657.295 2338.363, 656.027 2336.502, 654.279 2334.833, 652.066 2333.363, 649.403 2332.099, 646.305 2331.049, 642.789 2330.220, 638.870 2329.619, 634.562 2329.252, 629.882 2329.129, 624.844 2329.252, 619.806 2329.619, 615.125 2330.220, 610.818 2331.049, 606.898 2332.099, 603.382 2333.363, 600.285 2334.833, 597.622 2336.502, 595.409 2338.363, 593.661 2340.408, 592.393 2342.631, 591.621 " fill="none" stroke="rgb(0, 0, 0)" stroke-linecap="butt" stroke-linejoin="round" stroke-opacity="1.0" stroke-width="3.0" />
            <path d=" M 2260.468, 580.416 2260.468, 590.416 2260.468, 600.416 2260.468, 610.416 2260.468, 620.416 2260.468, 626.668 2265.186, 625.774 2269.560, 625.410 2273.578, 625.538 2277.227, 626.118 2280.493, 627.110 2283.366, 628.475 2285.831, 630.175 2287.876, 632.169 2289.489, 634.418 2290.657, 636.883 2291.367, 639.524 2291.606, 642.302 2291.437, 644.451 2290.942, 646.520 2290.147, 648.489 2289.073, 650.336 2287.744, 652.043 2286.183, 653.588 2284.413, 654.951 2282.458, 656.112 2280.339, 657.051 2278.080, 657.746 2275.705, 658.179 2273.236, 658.327 2271.608, 658.281 2269.979, 658.143 2268.352, 657.914 2266.727, 657.594 2265.103, 657.183 2263.481, 656.682 2261.862, 656.092 2260.246, 655.413 2258.634, 654.645 2257.026, 653.788 2255.422, 652.844 2253.823, 651.813 2253.823, 661.813 2253.823, 664.972 2255.714, 665.901 2257.551, 666.734 2259.344, 667.476 2261.105, 668.128 2262.844, 668.693 2264.572, 669.174 2266.300, 669.573 2268.039, 669.894 2269.800, 670.139 2271.593, 670.310 2273.430, 670.411 2275.321, 670.444 2279.423, 670.198 2283.309, 669.480 2286.951, 668.314 2290.323, 666.728 2293.398, 664.748 2296.150, 662.399 2298.552, 659.708 2300.577, 656.701 2302.198, 653.405 2303.389, 649.845 2304.124, 646.049 2304.375, 642.042 2304.122, 638.022 2303.375, 634.195 2302.147, 630.595 2300.456, 627.256 2298.316, 624.215 2295.743, 621.505 2292.752, 619.162 2289.358, 617.220 2285.577, 615.714 2281.424, 614.678 2276.914, 614.149 2272.063, 614.160 2272.063, 604.160 2272.063, 594.160 2272.063, 591.881 2282.063, 591.881 2292.063, 591.881 2299.945, 591.881 2299.945, 581.881 2299.945, 580.416 2289.945, 580.416 2279.945, 580.416 2269.945, 580.416 2260.468, 580.416 " fill="none" stroke="rgb(0, 0, 0)" stroke-linecap="butt" stroke-linejoin="round" stroke-opacity="1.0" stroke-width="3.0" />
            <path d=" M 2221.252, 580.416 2211.252, 580.416 2208.484, 580.416 2208.484, 590.416 2208.484, 600.416 2208.484, 610.416 2208.484, 620.416 2208.484, 630.416 2208.484, 640.416 2208.484, 650.416 2208.484, 660.416 2208.484, 669.271 2218.484, 669.271 2221.252, 669.271 2221.252, 659.271 2221.252, 649.271 2221.252, 639.271 2221.252, 629.271 2221.252, 619.271 2221.252, 609.271 2221.252, 599.271 2221.252, 589.271 2221.252, 580.416 " fill="none" stroke="rgb(0, 0, 0)" stroke-linecap="butt" stroke-linejoin="round" stroke-opacity="1.0" stroke-width="3.0" />
            <path d=" M 1637.882, 579.618 1633.705, 579.244 1629.528, 579.618 1625.611, 580.721 1621.971, 582.521 1618.631, 584.986 1615.608, 588.084 1612.925, 591.784 1610.599, 596.053 1608.652, 600.861 1607.102, 606.176 1605.971, 611.966 1605.278, 618.199 1605.042, 624.844 1605.278, 631.488 1605.971, 637.722 1607.102, 643.511 1608.652, 648.826 1610.599, 653.634 1612.925, 657.904 1615.608, 661.604 1618.631, 664.702 1621.971, 667.166 1625.611, 668.966 1629.528, 670.069 1633.705, 670.444 1637.882, 670.069 1641.800, 668.966 1645.439, 667.166 1648.780, 664.702 1651.802, 661.604 1654.486, 657.904 1656.811, 653.634 1658.759, 648.826 1660.308, 643.511 1661.439, 637.722 1662.133, 631.488 1662.368, 624.844 1662.133, 618.199 1661.439, 611.966 1660.308, 606.176 1658.759, 600.861 1656.811, 596.053 1654.486, 591.784 1651.802, 588.084 1648.780, 584.986 1645.439, 582.521 1641.800, 580.721 1637.882, 579.618 " fill="none" stroke="rgb(0, 0, 0)" stroke-linecap="butt" stroke-linejoin="round" stroke-opacity="1.0" stroke-width="3.0" />
            <path d=" M 1631.312, 591.621 1633.705, 591.360 1636.098, 591.621 1638.321, 592.393 1640.366, 593.661 1642.227, 595.409 1643.896, 597.622 1645.366, 600.285 1646.629, 603.382 1647.680, 606.898 1648.509, 610.818 1649.110, 615.125 1649.476, 619.806 1649.600, 624.844 1649.476, 629.882 1649.110, 634.562 1648.509, 638.870 1647.680, 642.789 1646.629, 646.305 1645.366, 649.403 1643.896, 652.066 1642.227, 654.279 1640.366, 656.027 1638.321, 657.295 1636.098, 658.067 1633.705, 658.327 1631.312, 658.067 1629.090, 657.295 1627.044, 656.027 1625.183, 654.279 1623.515, 652.066 1622.045, 649.403 1620.781, 646.305 1619.731, 642.789 1618.901, 638.870 1618.300, 634.562 1617.934, 629.882 1617.810, 624.844 1617.934, 619.806 1618.300, 615.125 1618.901, 610.818 1619.731, 606.898 1620.781, 603.382 1622.045, 600.285 1623.515, 597.622 1625.184, 595.409 1627.044, 593.661 1629.090, 592.393 1631.312, 591.621 " fill="none" stroke="rgb(0, 0, 0)" stroke-linecap="butt" stroke-linejoin="round" stroke-opacity="1.0" stroke-width="3.0" />
            <path d=" M 1572.739, 579.618 1568.562, 579.244 1564.385, 579.618 1560.468, 580.721 1556.828, 582.521 1553.488, 584.986 1550.465, 588.084 1547.782, 591.784 1545.456, 596.053 1543.509, 600.861 1541.959, 606.176 1540.828, 611.966 1540.135, 618.199 1539.899, 624.844 1540.135, 631.488 1540.828, 637.722 1541.959, 643.511 1543.509, 648.826 1545.456, 653.634 1547.781, 657.904 1550.465, 661.604 1553.488, 664.702 1556.828, 667.166 1560.468, 668.966 1564.385, 670.069 1568.562, 670.444 1572.739, 670.069 1576.657, 668.966 1580.296, 667.166 1583.637, 664.702 1586.659, 661.604 1589.343, 657.904 1591.668, 653.634 1593.616, 648.826 1595.165, 643.511 1596.296, 637.722 1596.990, 631.488 1597.225, 624.844 1596.990, 618.199 1596.296, 611.966 1595.165, 606.176 1593.616, 600.861 1591.668, 596.053 1589.343, 591.784 1586.659, 588.084 1583.637, 584.986 1580.296, 582.521 1576.657, 580.721 1572.739, 579.618 " fill="none" stroke="rgb(0, 0, 0)" stroke-linecap="butt" stroke-linejoin="round" stroke-opacity="1.0" stroke-width="3.0" />
            <path d=" M 1566.169, 591.621 1568.562, 591.360 1570.955, 591.621 1573.178, 592.393 1575.223, 593.661 1577.084, 595.409 1578.753, 597.622 1580.223, 600.285 1581.486, 603.382 1582.537, 606.898 1583.366, 610.818 1583.967, 615.125 1584.333, 619.806 1584.457, 624.844 1584.333, 629.882 1583.967, 634.562 1583.366, 638.870 1582.537, 642.789 1581.486, 646.305 1580.223, 649.403 1578.753, 652.066 1577.084, 654.279 1575.223, 656.027 1573.178, 657.295 1570.955, 658.067 1568.562, 658.327 1566.169, 658.067 1563.947, 657.295 1561.901, 656.027 1560.041, 654.279 1558.372, 652.066 1556.902, 649.403 1555.638, 646.305 1554.588, 642.789 1553.758, 638.870 1553.157, 634.562 1552.791, 629.882 1552.667, 624.844 1552.791, 619.806 1553.157, 615.125 1553.758, 610.818 1554.588, 606.898 1555.638, 603.382 1556.902, 600.285 1558.372, 597.622 1560.041, 595.409 1561.901, 593.661 1563.947, 592.393 1566.169, 591.621 " fill="none" stroke="rgb(0, 0, 0)" stroke-linecap="butt" stroke-linejoin="round" stroke-opacity="1.0" stroke-width="3.0" />
            <path d=" M 1509.933, 580.416 1499.933, 580.416 1497.166, 580.416 1497.166, 590.416 1497.166, 600.416 1497.166, 610.416 1497.166, 620.416 1497.166, 630.416 1497.166, 640.416 1497.166, 650.416 1497.166, 660.416 1497.166, 669.271 1507.166, 669.271 1509.933, 669.271 1509.933, 659.271 1509.933, 649.271 1509.933, 639.271 1509.933, 629.271 1509.933, 619.271 1509.933, 609.271 1509.933, 599.271 1509.933, 589.271 1509.933, 580.416 " fill="none" stroke="rgb(0, 0, 0)" stroke-linecap="butt" stroke-linejoin="round" stroke-opacity="1.0" stroke-width="3.0" />
            <path d=" M 1002.144, 1076.750 997.968, 1076.376 993.791, 1076.750 989.873, 1077.853 986.234, 1079.653 982.893, 1082.118 979.871, 1085.216 977.187, 1088.916 974.862, 1093.185 972.914, 1097.993 971.365, 1103.308 970.234, 1109.098 969.540, 1115.331 969.305, 1121.976 969.540, 1128.620 970.234, 1134.854 971.365, 1140.643 972.914, 1145.958 974.862, 1150.766 977.187, 1155.036 979.871, 1158.736 982.893, 1161.834 986.234, 1164.298 989.873, 1166.098 993.791, 1167.201 997.968, 1167.576 1002.144, 1167.201 1006.062, 1166.098 1009.702, 1164.298 1013.042, 1161.834 1016.064, 1158.736 1018.748, 1155.036 1021.074, 1150.766 1023.021, 1145.958 1024.570, 1140.643 1025.702, 1134.854 1026.395, 1128.620 1026.631, 1121.976 1026.395, 1115.331 1025.702, 1109.098 1024.571, 1103.308 1023.021, 1097.994 1021.074, 1093.185 1018.748, 1088.916 1016.065, 1085.216 1013.042, 1082.118 1009.702, 1079.653 1006.062, 1077.853 1002.144, 1076.750 " fill="none" stroke="rgb(0, 0, 0)" stroke-linecap="butt" stroke-linejoin="round" stroke-opacity="1.0" stroke-width="3.0" />
            <path d=" M 995.575, 1088.753 997.968, 1088.492 1000.360, 1088.753 1002.583, 1089.525 1004.629, 1090.793 1006.489, 1092.541 1008.158, 1094.754 1009.628, 1097.417 1010.892, 1100.514 1011.942, 1104.030 1012.771, 1107.950 1013.373, 1112.257 1013.739, 1116.938 1013.863, 1121.976 1013.739, 1127.014 1013.373, 1131.694 1012.771, 1136.002 1011.942, 1139.921 1010.892, 1143.438 1009.628, 1146.535 1008.158, 1149.198 1006.489, 1151.411 1004.629, 1153.159 1002.583, 1154.427 1000.360, 1155.199 997.968, 1155.459 995.575, 1155.199 993.352, 1154.427 991.307, 1153.159 989.446, 1151.411 987.777, 1149.198 986.307, 1146.535 985.043, 1143.438 983.993, 1139.921 983.164, 1136.002 982.563, 1131.694 982.196, 1127.014 982.073, 1121.976 982.196, 1116.938 982.563, 1112.257 983.164, 1107.950 983.993, 1104.030 985.043, 1100.514 986.307, 1097.417 987.777, 1094.754 989.446, 1092.541 991.307, 1090.793 993.352, 1089.525 995.575, 1088.753 " fill="none" stroke="rgb(0, 0, 0)" stroke-linecap="butt" stroke-linejoin="round" stroke-opacity="1.0" stroke-width="3.0" />
            <path d=" M 913.412, 1077.548 913.412, 1087.548 913.412, 1097.548 913.412, 1107.548 913.412, 1117.548 913.412, 1123.800 918.130, 1122.906 922.504, 1122.542 926.522, 1122.670 930.171, 1123.250 933.438, 1124.242 936.310, 1125.607 938.775, 1127.307 940.820, 1129.301 942.433, 1131.550 943.601, 1134.015 944.311, 1136.656 944.550, 1139.434 944.381, 1141.583 943.886, 1143.652 943.091, 1145.621 942.017, 1147.468 940.688, 1149.175 939.127, 1150.720 937.357, 1152.083 935.401, 1153.244 933.283, 1154.183 931.024, 1154.878 928.649, 1155.311 926.180, 1155.459 924.552, 1155.413 922.924, 1155.275 921.296, 1155.046 919.671, 1154.726 918.047, 1154.315 916.425, 1153.814 914.806, 1153.224 913.190, 1152.545 911.578, 1151.777 909.970, 1150.920 908.366, 1149.976 906.768, 1148.945 906.768, 1158.945 906.768, 1162.104 908.658, 1163.033 910.495, 1163.866 912.288, 1164.608 914.049, 1165.260 915.788, 1165.825 917.516, 1166.306 919.244, 1166.705 920.983, 1167.026 922.744, 1167.271 924.537, 1167.442 926.374, 1167.543 928.265, 1167.576 932.367, 1167.331 936.253, 1166.612 939.895, 1165.446 943.267, 1163.860 946.342, 1161.880 949.094, 1159.531 951.496, 1156.840 953.521, 1153.833 955.142, 1150.537 956.334, 1146.977 957.068, 1143.181 957.318, 1139.174 957.066, 1135.154 956.318, 1131.327 955.091, 1127.727 953.400, 1124.388 951.260, 1121.347 948.687, 1118.637 945.696, 1116.294 942.302, 1114.352 938.521, 1112.846 934.368, 1111.810 929.858, 1111.281 925.008, 1111.292 925.008, 1101.292 925.008, 1091.292 925.008, 1089.013 935.008, 1089.013 945.008, 1089.013 952.889, 1089.013 952.889, 1079.013 952.889, 1077.548 942.889, 1077.548 932.889, 1077.548 922.889, 1077.548 913.412, 1077.548 " fill="none" stroke="rgb(0, 0, 0)" stroke-linecap="butt" stroke-linejoin="round" stroke-opacity="1.0" stroke-width="3.0" />
            <path d=" M 2948.260, 1076.750 2944.083, 1076.376 2939.906, 1076.750 2935.988, 1077.853 2932.349, 1079.653 2929.008, 1082.118 2925.986, 1085.216 2923.302, 1088.916 2920.977, 1093.185 2919.029, 1097.993 2917.480, 1103.308 2916.349, 1109.098 2915.656, 1115.331 2915.420, 1121.976 2915.656, 1128.620 2916.349, 1134.854 2917.480, 1140.643 2919.030, 1145.958 2920.977, 1150.766 2923.302, 1155.036 2925.986, 1158.736 2929.008, 1161.834 2932.349, 1164.298 2935.988, 1166.098 2939.906, 1167.201 2944.083, 1167.576 2948.260, 1167.201 2952.177, 1166.098 2955.817, 1164.298 2959.157, 1161.834 2962.180, 1158.736 2964.864, 1155.036 2967.189, 1150.766 2969.136, 1145.958 2970.686, 1140.643 2971.817, 1134.854 2972.510, 1128.620 2972.746, 1121.976 2972.510, 1115.331 2971.817, 1109.098 2970.686, 1103.308 2969.136, 1097.994 2967.189, 1093.185 2964.864, 1088.916 2962.180, 1085.216 2959.157, 1082.118 2955.817, 1079.653 2952.177, 1077.853 2948.260, 1076.750 " fill="none" stroke="rgb(0, 0, 0)" stroke-linecap="butt" stroke-linejoin="round" stroke-opacity="1.0" stroke-width="3.0" />
            <path d=" M 2941.690, 1088.753 2944.083, 1088.492 2946.476, 1088.753 2948.698, 1089.525 2950.744, 1090.793 2952.604, 1092.541 2954.273, 1094.754 2955.743, 1097.417 2957.007, 1100.514 2958.057, 1104.030 2958.887, 1107.950 2959.488, 1112.257 2959.854, 1116.938 2959.978, 1121.976 2959.854, 1127.014 2959.488, 1131.694 2958.887, 1136.002 2958.057, 1139.921 2957.007, 1143.438 2955.743, 1146.535 2954.273, 1149.198 2952.604, 1151.411 2950.744, 1153.159 2948.698, 1154.427 2946.476, 1155.199 2944.083, 1155.459 2941.690, 1155.199 2939.468, 1154.427 2937.422, 1153.159 2935.561, 1151.411 2933.892, 1149.198 2932.422, 1146.535 2931.159, 1143.438 2930.109, 1139.921 2929.279, 1136.002 2928.678, 1131.694 2928.312, 1127.014 2928.188, 1121.976 2928.312, 1116.938 2928.678, 1112.257 2929.279, 1107.950 2930.109, 1104.030 2931.159, 1100.514 2932.422, 1097.417 2933.892, 1094.754 2935.561, 1092.541 2937.422, 1090.793 2939.468, 1089.525 2941.690, 1088.753 " fill="none" stroke="rgb(0, 0, 0)" stroke-linecap="butt" stroke-linejoin="round" stroke-opacity="1.0" stroke-width="3.0" />
            <path d=" M 2883.117, 1076.750 2878.940, 1076.376 2874.763, 1076.750 2870.845, 1077.853 2867.206, 1079.653 2863.865, 1082.118 2860.843, 1085.216 2858.159, 1088.916 2855.834, 1093.185 2853.886, 1097.993 2852.337, 1103.308 2851.206, 1109.098 2850.513, 1115.331 2850.277, 1121.976 2850.512, 1128.620 2851.206, 1134.854 2852.337, 1140.643 2853.886, 1145.958 2855.834, 1150.766 2858.159, 1155.036 2860.843, 1158.736 2863.865, 1161.834 2867.206, 1164.298 2870.845, 1166.098 2874.763, 1167.201 2878.940, 1167.576 2883.117, 1167.201 2887.035, 1166.098 2890.674, 1164.298 2894.014, 1161.834 2897.037, 1158.736 2899.720, 1155.036 2902.046, 1150.766 2903.993, 1145.958 2905.543, 1140.643 2906.674, 1134.854 2907.367, 1128.620 2907.603, 1121.976 2907.367, 1115.331 2906.674, 1109.098 2905.543, 1103.308 2903.993, 1097.994 2902.046, 1093.185 2899.720, 1088.916 2897.037, 1085.216 2894.014, 1082.118 2890.674, 1079.653 2887.035, 1077.853 2883.117, 1076.750 " fill="none" stroke="rgb(0, 0, 0)" stroke-linecap="butt" stroke-linejoin="round" stroke-opacity="1.0" stroke-width="3.0" />
            <path d=" M 2876.547, 1088.753 2878.940, 1088.492 2881.333, 1088.753 2883.555, 1089.525 2885.601, 1090.793 2887.462, 1092.541 2889.131, 1094.754 2890.601, 1097.417 2891.864, 1100.514 2892.914, 1104.030 2893.744, 1107.950 2894.345, 1112.257 2894.711, 1116.938 2894.835, 1121.976 2894.711, 1127.014 2894.345, 1131.694 2893.744, 1136.002 2892.914, 1139.921 2891.864, 1143.438 2890.601, 1146.535 2889.131, 1149.198 2887.462, 1151.411 2885.601, 1153.159 2883.555, 1154.427 2881.333, 1155.199 2878.940, 1155.459 2876.547, 1155.199 2874.324, 1154.427 2872.279, 1153.159 2870.418, 1151.411 2868.749, 1149.198 2867.279, 1146.535 2866.016, 1143.438 2864.966, 1139.921 2864.136, 1136.002 2863.535, 1131.694 2863.169, 1127.014 2863.045, 1121.976 2863.169, 1116.938 2863.535, 1112.257 2864.136, 1107.950 2864.966, 1104.030 2866.016, 1100.514 2867.279, 1097.417 2868.749, 1094.754 2870.418, 1092.541 2872.279, 1090.793 2874.324, 1089.525 2876.547, 1088.753 " fill="none" stroke="rgb(0, 0, 0)" stroke-linecap="butt" stroke-linejoin="round" stroke-opacity="1.0" stroke-width="3.0" />
            <path d=" M 2812.355, 1076.608 2808.455, 1076.376 2806.674, 1076.433 2804.911, 1076.605 2803.162, 1076.893 2801.425, 1077.297 2799.694, 1077.819 2797.967, 1078.460 2796.240, 1079.220 2794.510, 1080.101 2792.772, 1081.103 2791.023, 1082.226 2789.260, 1083.473 2787.479, 1084.844 2787.479, 1094.844 2787.479, 1100.869 2789.257, 1098.718 2791.010, 1096.815 2792.740, 1095.149 2794.447, 1093.708 2796.135, 1092.482 2797.804, 1091.456 2799.458, 1090.621 2801.096, 1089.964 2802.723, 1089.474 2804.338, 1089.138 2805.944, 1088.945 2807.543, 1088.883 2809.677, 1089.025 2811.703, 1089.440 2813.608, 1090.115 2815.375, 1091.035 2816.990, 1092.187 2818.438, 1093.557 2819.705, 1095.130 2820.774, 1096.893 2821.632, 1098.832 2822.264, 1100.932 2822.654, 1103.179 2822.787, 1105.560 2822.743, 1107.357 2822.613, 1109.050 2822.396, 1110.657 2822.092, 1112.199 2821.701, 1113.697 2821.223, 1115.168 2820.659, 1116.635 2820.007, 1118.115 2819.269, 1119.631 2818.444, 1121.200 2817.532, 1122.844 2816.533, 1124.581 2814.525, 1127.870 2812.301, 1131.267 2809.895, 1134.748 2807.341, 1138.286 2804.673, 1141.854 2801.925, 1145.427 2799.130, 1148.979 2796.324, 1152.482 2793.540, 1155.911 2790.811, 1159.240 2788.171, 1162.442 2785.655, 1165.491 2785.655, 1166.403 2795.655, 1166.403 2805.655, 1166.403 2815.655, 1166.403 2825.655, 1166.403 2835.655, 1166.403 2841.939, 1166.403 2841.939, 1156.403 2841.939, 1154.287 2831.939, 1154.287 2821.939, 1154.287 2811.939, 1154.287 2807.934, 1154.287 2812.638, 1148.622 2816.856, 1143.387 2820.604, 1138.534 2823.896, 1134.015 2826.747, 1129.782 2829.171, 1125.787 2831.182, 1121.981 2832.794, 1118.318 2834.024, 1114.749 2834.884, 1111.226 2835.389, 1107.701 2835.555, 1104.127 2835.328, 1100.132 2834.660, 1096.371 2833.574, 1092.865 2832.090, 1089.636 2830.230, 1086.705 2828.014, 1084.095 2825.465, 1081.827 2822.603, 1079.922 2819.450, 1078.403 2816.027, 1077.291 2812.355, 1076.608 " fill="none" stroke="rgb(0, 0, 0)" stroke-linecap="butt" stroke-linejoin="round" stroke-opacity="1.0" stroke-width="3.0" />
            <path d=" M 3044.484, 1707.357 3040.308, 1706.982 3036.131, 1707.357 3032.213, 1708.460 3028.574, 1710.260 3025.233, 1712.724 3022.211, 1715.822 3019.527, 1719.522 3017.201, 1723.792 3015.254, 1728.600 3013.705, 1733.915 3012.574, 1739.704 3011.880, 1745.937 3011.645, 1752.582 3011.880, 1759.227 3012.574, 1765.460 3013.705, 1771.250 3015.254, 1776.564 3017.201, 1781.372 3019.527, 1785.642 3022.211, 1789.342 3025.233, 1792.440 3028.574, 1794.905 3032.213, 1796.704 3036.131, 1797.808 3040.308, 1798.182 3044.484, 1797.808 3048.402, 1796.704 3052.042, 1794.905 3055.382, 1792.440 3058.405, 1789.342 3061.088, 1785.642 3063.414, 1781.372 3065.361, 1776.564 3066.910, 1771.250 3068.042, 1765.460 3068.735, 1759.227 3068.971, 1752.582 3068.735, 1745.937 3068.042, 1739.704 3066.910, 1733.915 3065.361, 1728.600 3063.414, 1723.792 3061.088, 1719.522 3058.405, 1715.822 3055.382, 1712.724 3052.042, 1710.260 3048.402, 1708.460 3044.484, 1707.357 " fill="none" stroke="rgb(0, 0, 0)" stroke-linecap="butt" stroke-linejoin="round" stroke-opacity="1.0" stroke-width="3.0" />
            <path d=" M 3037.915, 1719.359 3040.308, 1719.099 3042.700, 1719.359 3044.923, 1720.131 3046.969, 1721.399 3048.829, 1723.147 3050.498, 1725.360 3051.968, 1728.023 3053.232, 1731.120 3054.282, 1734.637 3055.111, 1738.556 3055.713, 1742.864 3056.079, 1747.544 3056.203, 1752.582 3056.079, 1757.620 3055.713, 1762.301 3055.111, 1766.608 3054.282, 1770.528 3053.232, 1774.044 3051.968, 1777.141 3050.498, 1779.804 3048.829, 1782.017 3046.969, 1783.765 3044.923, 1785.033 3042.700, 1785.805 3040.308, 1786.066 3037.915, 1785.805 3035.692, 1785.033 3033.647, 1783.765 3031.786, 1782.017 3030.117, 1779.804 3028.647, 1777.141 3027.384, 1774.044 3026.333, 1770.528 3025.504, 1766.608 3024.903, 1762.301 3024.536, 1757.620 3024.413, 1752.582 3024.536, 1747.544 3024.903, 1742.864 3025.504, 1738.556 3026.333, 1734.637 3027.384, 1731.120 3028.647, 1728.023 3030.117, 1725.360 3031.786, 1723.147 3033.647, 1721.399 3035.692, 1720.131 3037.915, 1719.359 " fill="none" stroke="rgb(0, 0, 0)" stroke-linecap="butt" stroke-linejoin="round" stroke-opacity="1.0" stroke-width="3.0" />
            <path d=" M 2955.752, 1708.155 2955.752, 1718.155 2955.752, 1728.155 2955.752, 1738.155 2955.752, 1748.155 2955.752, 1754.406 2960.470, 1753.512 2964.844, 1753.149 2968.862, 1753.276 2972.511, 1753.856 2975.778, 1754.848 2978.650, 1756.214 2981.115, 1757.913 2983.160, 1759.907 2984.773, 1762.156 2985.941, 1764.621 2986.651, 1767.262 2986.890, 1770.040 2986.720, 1772.190 2986.226, 1774.258 2985.431, 1776.227 2984.357, 1778.075 2983.028, 1779.781 2981.467, 1781.327 2979.698, 1782.690 2977.741, 1783.851 2975.623, 1784.789 2973.364, 1785.485 2970.989, 1785.917 2968.520, 1786.066 2966.892, 1786.020 2965.264, 1785.882 2963.636, 1785.652 2962.011, 1785.332 2960.387, 1784.922 2958.765, 1784.421 2957.146, 1783.831 2955.530, 1783.151 2953.918, 1782.383 2952.310, 1781.527 2950.706, 1780.583 2949.108, 1779.551 2949.108, 1789.551 2949.108, 1792.710 2950.999, 1793.639 2952.835, 1794.473 2954.628, 1795.214 2956.389, 1795.866 2958.128, 1796.431 2959.856, 1796.912 2961.584, 1797.311 2963.323, 1797.632 2965.084, 1797.877 2966.877, 1798.048 2968.714, 1798.149 2970.605, 1798.182 2974.707, 1797.937 2978.593, 1797.218 2982.235, 1796.053 2985.607, 1794.467 2988.682, 1792.486 2991.434, 1790.137 2993.836, 1787.446 2995.861, 1784.440 2997.482, 1781.143 2998.674, 1777.584 2999.408, 1773.787 2999.658, 1769.780 2999.406, 1765.760 2998.658, 1761.933 2997.431, 1758.333 2995.740, 1754.995 2993.600, 1751.953 2991.027, 1749.244 2988.036, 1746.900 2984.642, 1744.958 2980.861, 1743.452 2976.708, 1742.417 2972.198, 1741.888 2967.348, 1741.899 2967.348, 1731.899 2967.348, 1721.899 2967.348, 1719.620 2977.348, 1719.620 2987.348, 1719.620 2995.229, 1719.620 2995.229, 1709.620 2995.229, 1708.155 2985.229, 1708.155 2975.229, 1708.155 2965.229, 1708.155 2955.752, 1708.155 " fill="none" stroke="rgb(0, 0, 0)" stroke-linecap="butt" stroke-linejoin="round" stroke-opacity="1.0" stroke-width="3.0" />
            <path d=" M 2908.580, 1707.215 2904.680, 1706.982 2902.899, 1707.039 2901.136, 1707.211 2899.387, 1707.499 2897.649, 1707.904 2895.919, 1708.426 2894.192, 1709.067 2892.465, 1709.827 2890.735, 1710.707 2888.997, 1711.709 2887.248, 1712.833 2885.485, 1714.080 2883.704, 1715.451 2883.704, 1725.451 2883.704, 1731.476 2885.482, 1729.324 2887.235, 1727.421 2888.964, 1725.755 2890.672, 1724.315 2892.360, 1723.088 2894.029, 1722.063 2895.682, 1721.227 2897.321, 1720.570 2898.948, 1720.080 2900.563, 1719.744 2902.169, 1719.551 2903.768, 1719.490 2905.902, 1719.631 2907.928, 1720.046 2909.833, 1720.721 2911.600, 1721.642 2913.215, 1722.794 2914.663, 1724.164 2915.930, 1725.737 2916.999, 1727.500 2917.857, 1729.438 2918.489, 1731.538 2918.878, 1733.785 2919.011, 1736.166 2918.968, 1737.964 2918.838, 1739.656 2918.621, 1741.264 2918.317, 1742.806 2917.926, 1744.303 2917.448, 1745.775 2916.884, 1747.241 2916.232, 1748.722 2915.494, 1750.237 2914.669, 1751.807 2913.757, 1753.450 2912.758, 1755.188 2910.750, 1758.476 2908.525, 1761.873 2906.119, 1765.354 2903.565, 1768.892 2900.897, 1772.461 2898.149, 1776.034 2895.355, 1779.585 2892.549, 1783.088 2889.764, 1786.518 2887.035, 1789.846 2884.396, 1793.048 2881.880, 1796.098 2881.880, 1797.010 2891.880, 1797.010 2901.880, 1797.010 2911.880, 1797.010 2921.880, 1797.010 2931.880, 1797.010 2938.164, 1797.010 2938.164, 1787.010 2938.164, 1784.893 2928.164, 1784.893 2918.164, 1784.893 2908.164, 1784.893 2904.159, 1784.893 2908.863, 1779.229 2913.081, 1773.994 2916.829, 1769.141 2920.121, 1764.622 2922.972, 1760.388 2925.396, 1756.393 2927.406, 1752.588 2929.019, 1748.925 2930.249, 1745.355 2931.109, 1741.832 2931.614, 1738.308 2931.780, 1734.733 2931.552, 1730.738 2930.885, 1726.977 2929.799, 1723.471 2928.315, 1720.242 2926.455, 1717.312 2924.239, 1714.702 2921.690, 1712.433 2918.828, 1710.529 2915.675, 1709.010 2912.252, 1707.898 2908.580, 1707.215 " fill="none" stroke="rgb(0, 0, 0)" stroke-linecap="butt" stroke-linejoin="round" stroke-opacity="1.0" stroke-width="3.0" />
            <path d=" M 1501.131, 1708.155 1501.131, 1718.155 1501.131, 1728.155 1501.131, 1738.155 1501.131, 1748.155 1501.131, 1758.155 1501.131, 1768.155 1501.131, 1778.155 1501.131, 1788.155 1501.131, 1797.010 1511.131, 1797.010 1513.899, 1797.010 1513.899, 1787.010 1513.899, 1777.010 1513.899, 1767.010 1513.899, 1758.575 1523.899, 1758.575 1527.189, 1758.575 1532.103, 1758.352 1536.556, 1757.700 1540.555, 1756.647 1544.106, 1755.222 1547.216, 1753.450 1549.891, 1751.361 1552.137, 1748.981 1553.960, 1746.338 1555.367, 1743.460 1556.364, 1740.375 1556.958, 1737.109 1557.154, 1733.691 1556.969, 1730.232 1556.408, 1726.913 1555.467, 1723.765 1554.138, 1720.817 1552.417, 1718.100 1550.298, 1715.646 1547.774, 1713.485 1544.840, 1711.648 1541.490, 1710.166 1537.717, 1709.069 1533.517, 1708.388 1528.882, 1708.155 1518.882, 1708.155 1508.882, 1708.155 1501.131, 1708.155 " fill="none" stroke="rgb(0, 0, 0)" stroke-linecap="butt" stroke-linejoin="round" stroke-opacity="1.0" stroke-width="3.0" />
            <path d=" M 1513.899, 1719.620 1523.899, 1719.620 1528.882, 1719.620 1531.615, 1719.762 1534.028, 1720.171 1536.135, 1720.821 1537.954, 1721.685 1539.499, 1722.738 1540.787, 1723.952 1541.833, 1725.302 1542.654, 1726.761 1543.265, 1728.304 1543.681, 1729.904 1543.920, 1731.534 1543.995, 1733.170 1543.869, 1735.305 1543.498, 1737.278 1542.890, 1739.085 1542.055, 1740.721 1541.004, 1742.182 1539.745, 1743.462 1538.287, 1744.558 1536.641, 1745.465 1534.816, 1746.178 1532.822, 1746.693 1530.667, 1747.005 1528.361, 1747.110 1518.361, 1747.110 1513.899, 1747.110 1513.899, 1737.110 1513.899, 1727.110 1513.899, 1719.620 " fill="none" stroke="rgb(0, 0, 0)" stroke-linecap="butt" stroke-linejoin="round" stroke-opacity="1.0" stroke-width="3.0" />
            <path d=" M 1450.580, 1708.155 1440.580, 1708.155 1437.812, 1708.155 1437.812, 1718.155 1437.812, 1728.155 1437.812, 1738.155 1437.812, 1748.155 1437.812, 1758.155 1437.812, 1768.155 1437.812, 1778.155 1437.812, 1788.155 1437.812, 1797.010 1447.812, 1797.010 1457.812, 1797.010 1467.812, 1797.010 1477.812, 1797.010 1487.812, 1797.010 1490.708, 1797.010 1490.708, 1787.010 1490.708, 1785.545 1480.708, 1785.545 1470.708, 1785.545 1460.708, 1785.545 1450.580, 1785.545 1450.580, 1775.545 1450.580, 1765.545 1450.580, 1755.545 1450.580, 1745.545 1450.580, 1735.545 1450.580, 1725.545 1450.580, 1715.545 1450.580, 1708.155 " fill="none" stroke="rgb(0, 0, 0)" stroke-linecap="butt" stroke-linejoin="round" stroke-opacity="1.0" stroke-width="3.0" />
            <path d=" M 1372.800, 1708.155 1372.800, 1718.155 1372.800, 1728.155 1372.800, 1738.155 1372.800, 1748.155 1372.800, 1758.155 1372.800, 1768.155 1372.800, 1778.155 1372.800, 1788.155 1372.800, 1797.010 1382.800, 1797.010 1392.800, 1797.010 1402.800, 1797.010 1412.800, 1797.010 1422.800, 1797.010 1424.393, 1797.010 1424.393, 1787.010 1424.393, 1785.545 1414.393, 1785.545 1404.393, 1785.545 1394.393, 1785.545 1385.568, 1785.545 1385.568, 1775.545 1385.568, 1765.545 1385.568, 1757.924 1395.568, 1757.924 1405.568, 1757.924 1415.568, 1757.924 1421.917, 1757.924 1421.917, 1747.924 1421.917, 1746.459 1411.917, 1746.459 1401.917, 1746.459 1391.917, 1746.459 1385.568, 1746.459 1385.568, 1736.459 1385.568, 1726.459 1385.568, 1719.620 1395.568, 1719.620 1405.568, 1719.620 1415.568, 1719.620 1423.220, 1719.620 1423.220, 1709.620 1423.220, 1708.155 1413.220, 1708.155 1403.220, 1708.155 1393.220, 1708.155 1383.220, 1708.155 1372.800, 1708.155 " fill="none" stroke="rgb(0, 0, 0)" stroke-linecap="butt" stroke-linejoin="round" stroke-opacity="1.0" stroke-width="3.0" />
            <path d=" M 1290.589, 1708.155 1280.589, 1708.155 1277.821, 1708.155 1277.821, 1718.155 1277.821, 1728.155 1277.821, 1738.155 1277.821, 1748.155 1277.821, 1758.155 1277.821, 1768.155 1277.821, 1778.155 1277.821, 1788.155 1277.821, 1797.010 1287.821, 1797.010 1290.589, 1797.010 1290.589, 1787.010 1290.589, 1777.010 1290.589, 1767.010 1290.589, 1758.315 1300.589, 1758.315 1310.589, 1758.315 1320.589, 1758.315 1330.589, 1758.315 1340.358, 1758.315 1340.358, 1768.315 1340.358, 1778.315 1340.358, 1788.315 1340.358, 1797.010 1350.358, 1797.010 1353.126, 1797.010 1353.126, 1787.010 1353.126, 1777.010 1353.126, 1767.010 1353.126, 1757.010 1353.126, 1747.010 1353.126, 1737.010 1353.126, 1727.010 1353.126, 1717.010 1353.126, 1708.155 1343.126, 1708.155 1340.358, 1708.155 1340.358, 1718.155 1340.358, 1728.155 1340.358, 1738.155 1340.358, 1746.850 1330.358, 1746.850 1320.358, 1746.850 1310.358, 1746.850 1300.358, 1746.850 1290.589, 1746.850 1290.589, 1736.850 1290.589, 1726.850 1290.589, 1716.850 1290.589, 1708.155 " fill="none" stroke="rgb(0, 0, 0)" stroke-linecap="butt" stroke-linejoin="round" stroke-opacity="1.0" stroke-width="3.0" />
            <path d=" M 1212.480, 1708.155 1202.480, 1708.155 1192.480, 1708.155 1182.480, 1708.155 1172.480, 1708.155 1162.480, 1708.155 1152.480, 1708.155 1142.480, 1708.155 1138.217, 1708.155 1138.217, 1718.155 1138.217, 1719.620 1148.217, 1719.620 1158.217, 1719.620 1168.217, 1719.620 1168.964, 1719.620 1168.964, 1729.620 1168.964, 1739.620 1168.964, 1749.620 1168.964, 1759.620 1168.964, 1769.620 1168.964, 1779.620 1168.964, 1789.620 1168.964, 1797.010 1178.964, 1797.010 1181.732, 1797.010 1181.732, 1787.010 1181.732, 1777.010 1181.732, 1767.010 1181.732, 1757.010 1181.732, 1747.010 1181.732, 1737.010 1181.732, 1727.010 1181.732, 1719.620 1191.732, 1719.620 1201.732, 1719.620 1211.732, 1719.620 1212.480, 1719.620 1212.480, 1709.620 1212.480, 1708.155 " fill="none" stroke="rgb(0, 0, 0)" stroke-linecap="butt" stroke-linejoin="round" stroke-opacity="1.0" stroke-width="3.0" />
            <path d=" M 1080.630, 1708.155 1080.630, 1718.155 1080.630, 1728.155 1080.630, 1738.155 1080.630, 1748.155 1080.630, 1758.155 1080.630, 1768.155 1080.630, 1778.155 1080.630, 1788.155 1080.630, 1797.010 1090.630, 1797.010 1100.630, 1797.010 1110.630, 1797.010 1120.630, 1797.010 1130.630, 1797.010 1132.223, 1797.010 1132.223, 1787.010 1132.223, 1785.545 1122.223, 1785.545 1112.223, 1785.545 1102.223, 1785.545 1093.398, 1785.545 1093.398, 1775.545 1093.398, 1765.545 1093.398, 1757.924 1103.398, 1757.924 1113.398, 1757.924 1123.398, 1757.924 1129.748, 1757.924 1129.748, 1747.924 1129.748, 1746.459 1119.748, 1746.459 1109.748, 1746.459 1099.748, 1746.459 1093.398, 1746.459 1093.398, 1736.459 1093.398, 1726.459 1093.398, 1719.620 1103.398, 1719.620 1113.398, 1719.620 1123.398, 1719.620 1131.051, 1719.620 1131.051, 1709.620 1131.051, 1708.155 1121.051, 1708.155 1111.051, 1708.155 1101.051, 1708.155 1091.051, 1708.155 1080.630, 1708.155 " fill="none" stroke="rgb(0, 0, 0)" stroke-linecap="butt" stroke-linejoin="round" stroke-opacity="1.0" stroke-width="3.0" />
            <path d=" M 1031.192, 1707.019 1028.646, 1706.982 1022.015, 1707.389 1015.704, 1708.580 1009.763, 1710.506 1004.239, 1713.120 999.183, 1716.375 994.641, 1720.222 990.665, 1724.616 987.302, 1729.507 984.601, 1734.849 982.612, 1740.594 981.382, 1746.695 980.961, 1753.103 981.372, 1759.464 982.574, 1765.490 984.522, 1771.140 987.172, 1776.371 990.478, 1781.143 994.397, 1785.414 998.883, 1789.142 1003.892, 1792.286 1009.378, 1794.803 1015.297, 1796.653 1021.605, 1797.793 1028.255, 1798.182 1031.295, 1798.138 1034.239, 1798.004 1037.103, 1797.775 1039.904, 1797.449 1042.660, 1797.021 1045.388, 1796.489 1048.105, 1795.847 1050.828, 1795.094 1053.576, 1794.225 1056.363, 1793.236 1059.209, 1792.125 1062.130, 1790.886 1062.130, 1780.886 1062.130, 1770.886 1062.130, 1760.886 1062.130, 1753.234 1052.130, 1753.234 1042.130, 1753.234 1032.294, 1753.234 1032.294, 1763.234 1032.294, 1764.699 1042.294, 1764.699 1049.362, 1764.699 1049.362, 1774.699 1049.362, 1782.939 1047.828, 1783.419 1046.287, 1783.878 1044.736, 1784.313 1043.176, 1784.719 1041.602, 1785.093 1040.014, 1785.431 1038.409, 1785.727 1036.787, 1785.979 1035.144, 1786.182 1033.480, 1786.332 1031.792, 1786.425 1030.079, 1786.457 1024.938, 1786.171 1020.087, 1785.332 1015.556, 1783.969 1011.376, 1782.109 1007.576, 1779.780 1004.185, 1777.011 1001.234, 1773.829 998.753, 1770.262 996.771, 1766.340 995.318, 1762.088 994.425, 1757.536 994.120, 1752.712 994.426, 1747.993 995.319, 1743.498 996.763, 1739.265 998.719, 1735.326 1001.151, 1731.720 1004.022, 1728.479 1007.295, 1725.641 1010.932, 1723.239 1014.897, 1721.309 1019.152, 1719.888 1023.661, 1719.009 1028.386, 1718.708 1031.059, 1718.770 1033.736, 1718.956 1036.414, 1719.266 1039.093, 1719.697 1041.770, 1720.250 1044.443, 1720.923 1047.111, 1721.715 1049.772, 1722.626 1052.423, 1723.655 1055.064, 1724.800 1057.692, 1726.061 1060.306, 1727.437 1060.306, 1717.437 1060.306, 1714.539 1056.953, 1713.158 1053.844, 1711.943 1050.943, 1710.885 1048.218, 1709.974 1045.634, 1709.202 1043.157, 1708.562 1040.753, 1708.043 1038.389, 1707.638 1036.030, 1707.338 1033.642, 1707.135 1031.192, 1707.019 " fill="none" stroke="rgb(0, 0, 0)" stroke-linecap="butt" stroke-linejoin="round" stroke-opacity="1.0" stroke-width="3.0" />
            <path d=" M 894.034, 1707.357 889.857, 1706.982 885.680, 1707.357 881.762, 1708.460 878.123, 1710.260 874.782, 1712.724 871.760, 1715.822 869.076, 1719.522 866.751, 1723.792 864.804, 1728.600 863.254, 1733.915 862.123, 1739.704 861.430, 1745.937 861.194, 1752.582 861.430, 1759.227 862.123, 1765.460 863.254, 1771.250 864.804, 1776.564 866.751, 1781.372 869.076, 1785.642 871.760, 1789.342 874.782, 1792.440 878.123, 1794.905 881.762, 1796.704 885.680, 1797.808 889.857, 1798.182 894.034, 1797.808 897.952, 1796.704 901.591, 1794.905 904.932, 1792.440 907.954, 1789.342 910.638, 1785.642 912.963, 1781.372 914.911, 1776.564 916.460, 1771.250 917.591, 1765.460 918.284, 1759.227 918.520, 1752.582 918.284, 1745.937 917.591, 1739.704 916.460, 1733.915 914.911, 1728.600 912.963, 1723.792 910.638, 1719.522 907.954, 1715.822 904.932, 1712.724 901.591, 1710.260 897.952, 1708.460 894.034, 1707.357 " fill="none" stroke="rgb(0, 0, 0)" stroke-linecap="butt" stroke-linejoin="round" stroke-opacity="1.0" stroke-width="3.0" />
            <path d=" M 887.464, 1719.359 889.857, 1719.099 892.250, 1719.359 894.473, 1720.131 896.518, 1721.399 898.379, 1723.147 900.048, 1725.360 901.518, 1728.023 902.781, 1731.120 903.831, 1734.637 904.661, 1738.556 905.262, 1742.864 905.628, 1747.544 905.752, 1752.582 905.628, 1757.620 905.262, 1762.301 904.661, 1766.608 903.831, 1770.528 902.781, 1774.044 901.518, 1777.141 900.048, 1779.804 898.379, 1782.017 896.518, 1783.765 894.473, 1785.033 892.250, 1785.805 889.857, 1786.066 887.464, 1785.805 885.242, 1785.033 883.196, 1783.765 881.335, 1782.017 879.666, 1779.804 878.196, 1777.141 876.933, 1774.044 875.883, 1770.528 875.053, 1766.608 874.452, 1762.301 874.086, 1757.620 873.962, 1752.582 874.086, 1747.544 874.452, 1742.864 875.053, 1738.556 875.883, 1734.637 876.933, 1731.120 878.196, 1728.023 879.666, 1725.360 881.335, 1723.147 883.196, 1721.399 885.242, 1720.131 887.464, 1719.359 " fill="none" stroke="rgb(0, 0, 0)" stroke-linecap="butt" stroke-linejoin="round" stroke-opacity="1.0" stroke-width="3.0" />
            <path d=" M 1952.626, 389.863 1942.626, 389.778 1932.627, 389.694 1922.627, 389.609 1920.000, 389.587 1910.000, 389.672 1900.001, 389.756 1890.001, 389.840 1887.374, 389.863 1877.377, 390.116 1867.380, 390.370 1857.384, 390.624 1854.780, 390.690 1844.789, 391.114 1834.798, 391.537 1824.807, 391.961 1822.252, 392.069 1812.270, 392.663 1802.287, 393.258 1792.305, 393.852 1789.821, 394.000 1779.850, 394.766 1769.880, 395.532 1759.909, 396.298 1757.520, 396.482 1747.564, 397.422 1737.609, 398.362 1727.653, 399.302 1725.382, 399.516 1715.444, 400.631 1705.507, 401.747 1695.569, 402.862 1693.439, 403.102 1683.523, 404.395 1673.607, 405.688 1663.691, 406.982 1661.724, 407.239 1651.833, 408.713 1641.942, 410.187 1632.051, 411.662 1630.268, 411.927 1620.407, 413.586 1610.545, 415.244 1600.684, 416.902 1599.106, 417.168 1589.278, 419.014 1579.449, 420.860 1569.621, 422.706 1568.268, 422.960 1558.478, 424.997 1548.688, 427.035 1538.898, 429.073 1537.789, 429.303 1528.041, 431.537 1518.294, 433.771 1508.547, 436.005 1507.699, 436.199 1498.000, 438.633 1488.301, 441.068 1478.602, 443.503 1478.033, 443.646 1468.388, 446.286 1458.743, 448.927 1448.822, 451.644 1439.237, 454.497 1429.653, 457.350 1420.098, 460.194 1410.581, 463.265 1401.065, 466.337 1391.895, 469.296 1382.452, 472.588 1373.010, 475.879 1364.216, 478.945 1354.854, 482.459 1345.492, 485.974 1337.064, 489.138 1327.789, 492.876 1318.514, 496.615 1310.442, 499.869 1301.261, 503.834 1292.081, 507.799 1284.354, 511.136 1275.275, 515.328 1266.197, 519.520 1258.804, 522.934 1249.834, 527.354 1240.864, 531.774 1233.795, 535.258 1224.941, 539.907 1216.087, 544.556 1209.329, 548.105 1200.600, 552.983 1191.870, 557.862 1185.411, 561.471 1176.814, 566.578 1168.216, 571.685 1162.045, 575.351 1153.587, 580.686 1145.129, 586.021 1139.232, 589.741 1130.922, 595.303 1122.612, 600.866 1116.978, 604.637 1108.823, 610.425 1100.669, 616.213 1095.285, 620.035 1087.293, 626.047 1079.302, 632.059 1074.156, 635.931 1066.336, 642.164 1058.517, 648.397 1053.595, 652.320 1045.955, 658.772 1038.314, 665.224 1033.606, 669.199 1026.152, 675.866 1018.699, 682.532 1014.191, 686.564 1006.932, 693.441 999.673, 700.319 995.355, 704.409 988.297, 711.493 981.239, 718.578 977.100, 722.732 970.251, 730.018 963.402, 737.304 959.431, 741.527 952.797, 749.010 946.162, 756.492 942.350, 760.792 935.937, 768.465 929.524, 776.138 925.861, 780.521 919.675, 788.378 913.489, 796.235 909.966, 800.710 904.014, 808.745 898.061, 816.780 894.671, 821.356 888.956, 829.562 883.241, 837.768 879.978, 842.454 874.505, 850.823 869.033, 859.193 865.890, 864.000 860.664, 872.526 855.438, 881.052 852.411, 885.990 847.435, 894.664 842.459, 903.338 839.544, 908.420 834.822, 917.234 830.099, 926.049 827.294, 931.285 822.826, 940.232 818.359, 949.179 815.662, 954.582 811.452, 963.653 807.243, 972.724 804.652, 978.306 800.702, 987.493 796.752, 996.680 794.269, 1002.454 790.578, 1011.748 786.888, 1021.042 784.515, 1027.021 781.076, 1036.411 777.637, 1045.801 775.370, 1051.993 772.174, 1061.469 768.979, 1070.944 766.815, 1077.359 763.853, 1086.910 760.891, 1096.461 758.831, 1103.104 756.093, 1112.722 753.355, 1122.339 751.397, 1129.216 748.874, 1138.892 746.350, 1148.568 744.495, 1155.681 742.176, 1165.409 739.856, 1175.136 738.104, 1182.487 735.979, 1192.259 733.854, 1202.031 732.204, 1209.621 730.264, 1219.431 728.324, 1229.241 726.776, 1237.069 725.011, 1246.912 723.246, 1256.755 721.801, 1264.818 720.201, 1274.689 718.602, 1284.560 717.258, 1292.855 715.814, 1302.750 714.371, 1312.645 713.128, 1321.167 711.831, 1331.082 710.535, 1340.998 709.392, 1349.741 708.233, 1359.673 707.074, 1369.606 706.029, 1378.564 704.999, 1388.510 703.969, 1398.457 703.020, 1407.622 702.110, 1417.581 701.201, 1427.539 700.345, 1436.903 699.548, 1446.872 698.750, 1456.840 697.985, 1466.394 697.292, 1476.370 696.598, 1486.346 695.920, 1496.081 695.322, 1506.063 694.724, 1516.046 694.131, 1525.952 693.621, 1535.939 693.111, 1545.926 692.597, 1555.993 692.168, 1565.984 691.738, 1575.974 691.299, 1586.191 690.943, 1596.184 690.587, 1606.178 690.230, 1616.172 690.217, 1616.533 689.927, 1626.529 689.637, 1636.524 689.347, 1646.520 689.332, 1647.006 689.101, 1657.003 688.870, 1667.000 688.638, 1676.998 688.624, 1677.597 688.445, 1687.595 688.266, 1697.593 688.086, 1707.592 688.074, 1708.292 687.940, 1718.291 687.806, 1728.290 687.671, 1738.290 687.661, 1739.080 687.565, 1749.079 687.470, 1759.079 687.374, 1769.078 687.366, 1769.945 687.302, 1779.945 687.239, 1789.945 687.175, 1799.945 687.169, 1800.877 687.131, 1810.877 687.093, 1820.877 687.055, 1830.876 687.051, 1831.860 687.032, 1841.860 687.013, 1851.860 686.994, 1861.860 686.992, 1862.883 686.986, 1872.883 686.980, 1882.883 686.973, 1892.883 686.973, 1893.933 686.973, 1903.933 686.973, 1913.933 686.973, 1923.933 686.973, 1924.995 696.973, 1924.995 706.973, 1924.995 716.973, 1924.995 726.973, 1924.995 736.973, 1924.995 746.973, 1924.995 756.973, 1924.995 764.037, 1924.995 774.037, 1924.995 784.037, 1924.995 794.037, 1924.995 804.037, 1924.995 814.037, 1924.995 824.037, 1924.995 834.037, 1924.995 841.101, 1924.995 851.101, 1924.995 861.101, 1924.995 871.101, 1924.995 881.101, 1924.995 891.101, 1924.995 901.101, 1924.995 911.101, 1924.995 918.165, 1924.995 928.165, 1924.995 938.165, 1924.995 948.165, 1924.995 958.165, 1924.995 968.165, 1924.995 978.165, 1924.995 988.165, 1924.995 995.229, 1924.995 1005.229, 1924.995 1015.229, 1924.995 1025.229, 1924.995 1035.229, 1924.995 1045.229, 1924.995 1055.229, 1924.995 1065.229, 1924.995 1072.294, 1924.995 1082.294, 1924.995 1092.294, 1924.995 1102.294, 1924.995 1112.294, 1924.995 1122.294, 1924.995 1132.294, 1924.995 1142.294, 1924.995 1149.358, 1924.995 1159.358, 1924.995 1169.358, 1924.995 1179.358, 1924.995 1189.358, 1924.995 1199.358, 1924.995 1209.358, 1924.995 1219.358, 1924.995 1226.422, 1924.995 1236.422, 1924.995 1246.422, 1924.995 1256.422, 1924.995 1266.422, 1924.995 1276.422, 1924.995 1286.422, 1924.995 1296.422, 1924.995 1303.486, 1924.995 1313.486, 1924.995 1323.486, 1924.995 1333.486, 1924.995 1343.486, 1924.995 1353.486, 1924.995 1363.486, 1924.995 1373.486, 1924.995 1380.551, 1924.995 1390.551, 1924.995 1400.551, 1924.995 1410.551, 1924.995 1420.551, 1924.995 1430.551, 1924.995 1440.551, 1924.995 1450.551, 1924.995 1457.615, 1924.995 1467.615, 1924.995 1477.615, 1924.995 1487.615, 1924.995 1497.615, 1924.995 1507.615, 1924.995 1517.615, 1924.995 1527.615, 1924.995 1534.679, 1924.995 1544.679, 1924.995 1554.679, 1924.995 1564.679, 1924.995 1574.679, 1924.995 1584.679, 1924.995 1594.679, 1924.995 1604.679, 1924.995 1611.743, 1924.995 1621.743, 1924.995 1631.743, 1924.995 1641.743, 1924.995 1651.743, 1924.995 1661.743, 1924.995 1671.743, 1924.995 1681.743, 1924.995 1688.807, 1924.995 1698.807, 1924.995 1708.807, 1924.995 1718.807, 1924.995 1728.807, 1924.995 1738.807, 1924.995 1748.807, 1924.995 1758.807, 1924.995 1765.872, 1924.995 1775.872, 1924.995 1785.872, 1924.995 1795.872, 1924.995 1805.872, 1924.995 1815.872, 1924.995 1825.872, 1924.995 1835.872, 1924.995 1842.936, 1924.995 1852.936, 1924.995 1862.936, 1924.995 1872.936, 1924.995 1882.936, 1924.995 1892.936, 1924.995 1902.936, 1924.995 1912.936, 1924.995 1920.000, 1924.995 1930.000, 1924.995 1940.000, 1924.995 1950.000, 1924.995 1960.000, 1924.995 1970.000, 1924.995 1980.000, 1924.995 1990.000, 1924.995 1997.064, 1924.995 2007.064, 1924.995 2017.064, 1924.995 2027.064, 1924.995 2037.064, 1924.995 2047.064, 1924.995 2057.064, 1924.995 2067.064, 1924.995 2074.128, 1924.995 2084.128, 1924.995 2094.128, 1924.995 2104.128, 1924.995 2114.128, 1924.995 2124.128, 1924.995 2134.128, 1924.995 2144.128, 1924.995 2151.193, 1924.995 2161.193, 1924.995 2171.193, 1924.995 2181.193, 1924.995 2191.193, 1924.995 2201.193, 1924.995 2211.193, 1924.995 2221.193, 1924.995 2228.257, 1924.995 2238.257, 1924.995 2248.257, 1924.995 2258.257, 1924.995 2268.257, 1924.995 2278.257, 1924.995 2288.257, 1924.995 2298.257, 1924.995 2305.321, 1924.995 2315.321, 1924.995 2325.321, 1924.995 2335.321, 1924.995 2345.321, 1924.995 2355.321, 1924.995 2365.321, 1924.995 2375.321, 1924.995 2382.385, 1924.995 2392.385, 1924.995 2402.385, 1924.995 2412.385, 1924.995 2422.385, 1924.995 2432.385, 1924.995 2442.385, 1924.995 2452.385, 1924.995 2459.449, 1924.995 2469.449, 1924.995 2479.449, 1924.995 2489.449, 1924.995 2499.449, 1924.995 2509.449, 1924.995 2519.449, 1924.995 2529.449, 1924.995 2536.514, 1924.995 2546.514, 1924.995 2556.514, 1924.995 2566.514, 1924.995 2576.514, 1924.995 2586.514, 1924.995 2596.514, 1924.995 2606.514, 1924.995 2613.578, 1924.995 2623.578, 1924.995 2633.578, 1924.995 2643.578, 1924.995 2653.578, 1924.995 2663.578, 1924.995 2673.578, 1924.995 2683.578, 1924.995 2690.642, 1924.995 2700.642, 1924.995 2710.642, 1924.995 2720.642, 1924.995 2730.642, 1924.995 2740.642, 1924.995 2750.642, 1924.995 2760.642, 1924.995 2767.706, 1924.995 2777.706, 1924.995 2787.706, 1924.995 2797.706, 1924.995 2807.706, 1924.995 2817.706, 1924.995 2827.706, 1924.995 2837.706, 1924.995 2844.771, 1924.995 2854.771, 1924.995 2864.771, 1924.995 2874.771, 1924.995 2884.771, 1924.995 2894.771, 1924.995 2904.771, 1924.995 2914.771, 1924.995 2921.835, 1924.995 2931.835, 1924.995 2941.835, 1924.995 2951.835, 1924.995 2961.835, 1924.995 2971.835, 1924.995 2981.835, 1924.995 2991.835, 1924.995 2998.899, 1924.995 3008.899, 1924.995 3018.899, 1924.995 3028.899, 1924.995 3038.899, 1924.995 3048.899, 1924.995 3058.899, 1924.995 3068.899, 1924.995 3075.963, 1924.995 3085.963, 1924.995 3095.963, 1924.995 3105.963, 1924.995 3115.963, 1924.995 3125.963, 1924.995 3135.963, 1924.995 3145.963, 1924.995 3153.027, 1924.995 3153.027, 1914.995 3153.027, 1904.995 3153.027, 1894.995 3153.027, 1893.933 3153.021, 1883.933 3153.015, 1873.933 3153.008, 1863.933 3153.008, 1862.883 3152.989, 1852.883 3152.970, 1842.883 3152.951, 1832.883 3152.949, 1831.860 3152.911, 1821.860 3152.873, 1811.861 3152.834, 1801.861 3152.831, 1800.877 3152.767, 1790.877 3152.704, 1780.877 3152.640, 1770.877 3152.634, 1769.945 3152.539, 1759.946 3152.443, 1749.946 3152.347, 1739.947 3152.339, 1739.080 3152.205, 1729.080 3152.071, 1719.081 3151.937, 1709.082 3151.926, 1708.292 3151.747, 1698.294 3151.567, 1688.295 3151.388, 1678.297 3151.375, 1677.597 3151.144, 1667.599 3150.913, 1657.602 3150.681, 1647.605 3150.667, 1647.006 3150.377, 1637.010 3150.087, 1627.014 3149.797, 1617.018 3149.782, 1616.533 3149.426, 1606.539 3149.070, 1596.545 3148.714, 1586.552 3148.701, 1586.191 3148.271, 1576.200 3147.842, 1566.209 3147.403, 1555.993 3146.893, 1546.006 3146.383, 1536.019 3145.869, 1525.952 3145.271, 1515.970 3144.673, 1505.988 3144.080, 1496.081 3143.386, 1486.105 3142.692, 1476.130 3142.015, 1466.394 3141.217, 1456.426 3140.419, 1446.458 3139.655, 1436.903 3138.745, 1426.945 3137.835, 1416.986 3136.980, 1407.622 3135.950, 1397.675 3134.920, 1387.729 3133.971, 1378.564 3132.812, 1368.631 3131.654, 1358.698 3130.608, 1349.741 3129.312, 1339.825 3128.015, 1329.910 3126.872, 1321.167 3125.429, 1311.271 3123.985, 1301.376 3122.742, 1292.855 3121.143, 1282.983 3119.543, 1273.112 3118.199, 1264.818 3116.435, 1254.974 3114.670, 1245.131 3113.224, 1237.069 3111.284, 1227.258 3109.344, 1217.448 3107.796, 1209.621 3105.672, 1199.849 3103.547, 1190.077 3101.896, 1182.487 3099.577, 1172.760 3097.258, 1163.033 3095.505, 1155.681 3092.981, 1146.005 3090.458, 1136.329 3088.603, 1129.216 3085.865, 1119.598 3083.126, 1109.980 3081.169, 1103.104 3078.207, 1093.553 3075.245, 1084.001 3073.185, 1077.359 3069.989, 1067.883 3066.793, 1058.407 3064.630, 1051.993 3061.191, 1042.603 3057.753, 1033.213 3055.485, 1027.021 3051.795, 1017.726 3048.105, 1008.432 3045.731, 1002.454 3041.781, 993.267 3037.831, 984.081 3035.348, 978.306 3031.138, 969.235 3026.929, 960.165 3024.338, 954.582 3019.871, 945.635 3015.404, 936.688 3012.707, 931.285 3007.984, 922.471 3003.261, 913.656 3000.456, 908.420 2995.480, 899.745 2990.504, 891.071 2987.589, 885.990 2982.363, 877.464 2977.137, 868.938 2974.110, 864.000 2968.637, 855.630 2963.165, 847.260 2960.022, 842.454 2954.307, 834.248 2948.592, 826.042 2945.329, 821.356 2939.376, 813.321 2933.423, 805.285 2930.033, 800.710 2923.848, 792.853 2917.662, 784.995 2914.139, 780.521 2907.727, 772.848 2901.313, 765.175 2897.650, 760.792 2891.016, 753.309 2884.381, 745.827 2880.569, 741.527 2873.719, 734.241 2866.870, 726.955 2862.899, 722.732 2855.842, 715.648 2848.784, 708.563 2844.645, 704.409 2837.385, 697.532 2830.126, 690.654 2825.809, 686.564 2818.355, 679.897 2810.901, 673.231 2806.394, 669.199 2798.754, 662.748 2791.113, 656.296 2786.405, 652.320 2778.585, 646.087 2770.766, 639.854 2765.844, 635.931 2757.853, 629.919 2749.862, 623.907 2744.716, 620.035 2736.561, 614.247 2728.406, 608.459 2723.022, 604.637 2714.712, 599.074 2706.402, 593.512 2700.768, 589.741 2692.310, 584.406 2683.852, 579.070 2677.955, 575.351 2669.358, 570.244 2660.760, 565.137 2654.589, 561.471 2645.859, 556.593 2637.130, 551.714 2630.671, 548.105 2621.817, 543.456 2612.964, 538.807 2606.205, 535.258 2597.235, 530.838 2588.265, 526.417 2581.196, 522.934 2572.117, 518.742 2563.038, 514.549 2555.646, 511.136 2546.465, 507.171 2537.285, 503.206 2529.558, 499.869 2520.283, 496.130 2511.009, 492.392 2502.937, 489.138 2493.574, 485.623 2484.212, 482.109 2475.784, 478.945 2466.342, 475.653 2456.899, 472.361 2448.105, 469.296 2438.588, 466.225 2429.072, 463.153 2419.902, 460.194 2410.317, 457.341 2400.733, 454.488 2391.178, 451.644 2381.533, 449.003 2371.888, 446.362 2361.967, 443.646 2352.268, 441.211 2342.569, 438.776 2332.870, 436.342 2332.301, 436.199 2322.553, 433.965 2312.806, 431.731 2303.059, 429.498 2302.211, 429.303 2292.421, 427.266 2282.631, 425.228 2272.841, 423.191 2271.732, 422.960 2261.904, 421.114 2252.075, 419.268 2242.247, 417.422 2240.894, 417.168 2231.033, 415.510 2221.171, 413.851 2211.310, 412.193 2209.732, 411.927 2199.841, 410.453 2189.950, 408.979 2180.060, 407.504 2178.276, 407.239 2168.361, 405.945 2158.445, 404.652 2148.529, 403.358 2146.561, 403.102 2136.624, 401.986 2126.686, 400.871 2116.748, 399.755 2114.618, 399.516 2104.662, 398.576 2094.707, 397.636 2084.751, 396.696 2082.480, 396.482 2072.509, 395.716 2062.539, 394.950 2052.568, 394.183 2050.179, 394.000 2040.197, 393.406 2030.214, 392.811 2020.232, 392.217 2017.748, 392.069 2007.757, 391.646 1997.766, 391.222 1987.775, 390.798 1985.220, 390.690 1975.223, 390.436 1965.226, 390.183 1955.229, 389.929 1952.626, 389.863 " fill="none" stroke="rgb(0, 0, 0)" stroke-linecap="butt" stroke-linejoin="round" stroke-opacity="1.0" stroke-width="3.0" />
            <path d=" M 1854.329, 1458.065 1857.306, 1455.232 1860.776, 1452.239 1864.388, 1449.420 1868.134, 1446.781 1872.005, 1444.330 1875.992, 1442.072 1880.085, 1440.012 1884.274, 1438.154 1888.549, 1436.506 1892.900, 1435.068 1897.316, 1433.846 1901.787, 1432.842 1906.302, 1432.059 1910.850, 1431.498 1915.419, 1431.161 1920.000, 1431.048 1924.581, 1431.161 1929.151, 1431.498 1933.698, 1432.059 1938.213, 1432.842 1942.684, 1433.846 1947.100, 1435.068 1951.451, 1436.506 1955.726, 1438.154 1959.915, 1440.012 1964.008, 1442.072 1967.995, 1444.330 1971.866, 1446.781 1975.612, 1449.420 1979.225, 1452.240 1982.694, 1455.232 1985.671, 1458.065 1986.013, 1458.392 1989.173, 1461.711 1992.166, 1465.180 1994.985, 1468.793 1997.624, 1472.539 2000.075, 1476.410 2002.333, 1480.397 2004.393, 1484.490 2006.251, 1488.679 2007.564, 1492.085 2007.669, 1492.357 2007.899, 1492.954 2009.337, 1497.305 2010.559, 1501.721 2011.563, 1506.192 2012.346, 1510.707 2012.907, 1515.254 2013.244, 1519.824 2013.357, 1524.405 2013.310, 1526.314 2013.244, 1528.986 2012.907, 1533.555 2012.346, 1538.103 2011.563, 1542.618 2010.559, 1547.089 2009.337, 1551.505 2007.899, 1555.856 2006.251, 1560.131 2005.982, 1560.738 2004.393, 1564.320 2002.333, 1568.413 2000.075, 1572.400 1997.624, 1576.271 1994.985, 1580.017 1992.166, 1583.630 1989.173, 1587.099 1986.013, 1590.418 1982.694, 1593.578 1980.649, 1595.342 1979.225, 1596.570 1975.612, 1599.390 1971.866, 1602.028 1967.995, 1604.479 1964.008, 1606.738 1959.915, 1608.798 1955.726, 1610.655 1951.451, 1612.304 1947.100, 1613.741 1942.684, 1614.964 1938.213, 1615.968 1933.698, 1616.751 1929.151, 1617.312 1924.581, 1617.649 1920.000, 1617.762 1915.419, 1617.649 1910.849, 1617.312 1906.302, 1616.751 1901.787, 1615.968 1897.316, 1614.964 1892.900, 1613.741 1888.549, 1612.304 1884.274, 1610.655 1880.085, 1608.798 1875.992, 1606.738 1872.005, 1604.479 1868.134, 1602.028 1864.388, 1599.390 1860.775, 1596.570 1859.352, 1595.342 1857.306, 1593.578 1853.987, 1590.418 1850.827, 1587.099 1847.835, 1583.630 1845.015, 1580.017 1842.377, 1576.271 1839.925, 1572.400 1837.667, 1568.413 1835.607, 1564.320 1834.019, 1560.738 1833.750, 1560.131 1832.101, 1555.856 1830.664, 1551.505 1829.441, 1547.089 1828.437, 1542.618 1827.654, 1538.103 1827.093, 1533.555 1826.756, 1528.986 1826.690, 1526.314 1826.643, 1524.405 1826.756, 1519.824 1827.093, 1515.254 1827.654, 1510.707 1828.437, 1506.192 1829.441, 1501.721 1830.664, 1497.305 1832.101, 1492.954 1832.331, 1492.358 1832.436, 1492.085 1833.750, 1488.679 1835.607, 1484.490 1837.667, 1480.397 1839.926, 1476.410 1842.377, 1472.539 1845.016, 1468.792 1847.835, 1465.180 1850.828, 1461.710 1853.987, 1458.392 1854.329, 1458.065 " fill="none" stroke="rgb(0, 0, 0)" stroke-linecap="butt" stroke-linejoin="round" stroke-opacity="1.0" stroke-width="3.0" />
        </g>
    </g>
</svg>
